<svg id="Ebene_1" data-name="Ebene 1" xmlns="http://www.w3.org/2000/svg" width="16" height="16" viewBox="0 0 16 16"><defs><style>.cls-1{fill:#103a5d;}.cls-2{fill:#fff;}</style></defs><title>map_elements</title><path class="cls-1" d="M15.63,1.52h0a.5.5,0,0,0-.46,0l-4.74,1.9L5.7,1.48a.4.4,0,0,0-.37,0l-4.92,2A.5.5,0,0,0,.1,3.9V14.73a.53.53,0,0,0,.21.42.53.53,0,0,0,.27.08.4.4,0,0,0,.19,0l4.74-1.91,4.74,1.89a.4.4,0,0,0,.37,0l4.92-2a.49.49,0,0,0,.3-.45V1.93A.52.52,0,0,0,15.63,1.52ZM5.27,12.32,1.08,14V4.23L5.27,2.55Zm4.92,1.77L5.76,12.32V2.55l4.43,1.78Zm4.67-1.66L10.67,14.1V4.33l4.19-1.68Z"/><polygon class="cls-1" points="14.86 2.65 14.86 12.43 10.67 14.1 10.67 4.33 14.86 2.65"/><polygon class="cls-1" points="10.19 4.33 10.19 14.09 5.76 12.32 5.76 2.55 10.19 4.33"/><polygon class="cls-1" points="5.27 2.55 5.27 12.32 1.08 14 1.08 4.23 5.27 2.55"/><circle class="cls-2" cx="3.25" cy="8.5" r="1.79"/><circle class="cls-2" cx="7.89" cy="8.5" r="1.79"/><circle class="cls-2" cx="12.83" cy="8.5" r="1.79"/></svg>