<svg id="Ebene_1" data-name="Ebene 1" xmlns="http://www.w3.org/2000/svg" width="16" height="16" viewBox="0 0 16 16"><defs><style>.cls-1{fill:#0098d6;stroke:#103a5d;stroke-miterlimit:10;stroke-width:1.25px;}.cls-2{fill:#fff;}</style></defs><title>data_bundle_elemente_2_1</title><path class="cls-1" d="M15,2V15H1V2H3A1,1,0,0,0,4,3.08,1,1,0,0,0,5,2h6a1,1,0,1,0,2,0Z"/><circle class="cls-2" cx="4" cy="6.33" r="1.33"/><path class="cls-2" d="M3.25,11c-.93,0-1.53-.7-1.12-1.3l1-1.37H4.92l1,1.37c.41.6-.19,1.3-1.12,1.3Z"/><rect class="cls-2" x="7.45" y="6" width="6.55" height="1"/><rect class="cls-2" x="7.45" y="8" width="5.55" height="1"/><rect class="cls-2" x="7.45" y="10" width="6.55" height="1"/></svg>