<svg id="Ebene_1" data-name="Ebene 1" xmlns="http://www.w3.org/2000/svg" width="16" height="16" viewBox="0 0 16 16"><defs><style>.cls-1{fill:#0098d6;}.cls-2{fill:#103a5d;}</style></defs><title>map_elements_1</title><path class="cls-1" d="M14.84,9.6v5.66H9.16a8.15,8.15,0,0,0,0-5.41.58.58,0,0,0-.05-.14l.31-.11A8.25,8.25,0,0,1,14.84,9.6Z"/><path class="cls-2" d="M6.52,15.26H.84V9.83A9.82,9.82,0,0,0,6,9.85l.51-.14a.58.58,0,0,1,0,.14A8.15,8.15,0,0,1,6.52,15.26Z"/><path class="cls-1" d="M6.47,6.83,6,7A9.93,9.93,0,0,1,.84,7V1.05H6.29a9.79,9.79,0,0,0,0,5.11C6.33,6.38,6.4,6.61,6.47,6.83Z"/><path class="cls-2" d="M14.84,1.05V6.73a8.25,8.25,0,0,0-5.42,0l-.31.1C9,6.61,9,6.38,8.91,6.16a9.89,9.89,0,0,1,0-5.11Z"/></svg>